<svg id="Layer_1" data-name="Layer 1" xmlns="http://www.w3.org/2000/svg" viewBox="0 0 288 288"><defs><style>.cls-1{fill:#fff;}.cls-2{fill:#ff4200;}.cls-3{fill:#114219;}.cls-4{fill:#1c3997;}.cls-5{fill:#b81304;}.cls-6{font-size:19.07533px;}.cls-6,.cls-9{font-family:TimesNewRomanPSMT, Times New Roman;}.cls-7{letter-spacing:-0.1289em;}.cls-8{letter-spacing:-0.05517em;}.cls-9{font-size:15.37745px;}</style></defs><title>madhava inn logo final</title><rect class="cls-1" x="53.42553" y="35.38298" width="180.76596" height="216.51064" rx="13.01064"/><path class="cls-2" d="M65.29117,46.77509V194.10643a3.22472,3.22472,0,0,0,6.23794,0V67.31385L139.86565,173.02c-2.30731-21.28035,2.63587-36.46325,5.86642-44.18106,6.48675-15.49687,17.036-27.09672,21.44894-31.94927,5.79713-6.3745,9.78-9.45906,19.43232-20.08225,5.99224-6.59486,10.67023-12.24115,13.74932-16.066,20.29717,42.88375,22.66194,86.51684,9.16626,115.56474-9.037,19.45111-23.6487,33.59236-23.6487,33.59236a110.3881,110.3881,0,0,1-31.1653,21.17765,3.44846,3.44846,0,1,0,1.92491,6.61172c10.97636-5.06757,31.7808-16.54921,47.75592-39.65638a130.93135,130.93135,0,0,0,15.03268-31.03626c16.47206-51.99781-13.63532-110.06179-19.06577-120.22018a96.57,96.57,0,0,1-7.51634,13.05361A101.2289,101.2289,0,0,1,177.2638,77.53749c-3.44163,3.22336-22.22207,20.81261-32.4484,38.70433-4.256,7.4461-9.37518,19.04728-11.27444,35.6917Q99.41613,99.35431,65.29117,46.77509Z"/><path class="cls-3" d="M147.74855,141.98372c2.24876-10.0565,5.391-15.40861,7.79132-18.71326a64.6082,64.6082,0,0,1,6.59967-7.2113c13.99423-14.10649,16.3057-16.33714,18.88236-19.07831a141.869,141.869,0,0,0,14.4827-18.2565,83.59013,83.59013,0,0,1,9.62453,29.39316c.93251,7.25569,2.13947,16.64762-1.64992,27.56766-.70774,2.03944-3.44982,9.49276-11.64114,18.62181-14.94406,16.65484-34.46755,23.77762-45.556,26.8373C145.45883,173.78964,144.20783,157.81755,147.74855,141.98372Z"/><path class="cls-4" d="M147.29028,180.41393c-1.73921-5.44117-4.823-17.973.73325-30.30617,3.5524-7.88522,9.71811-13.65078,12.00783-15.79184,4.7129-4.407,7.37321-5.40586,13.47433-10.49776a100.61909,100.61909,0,0,0,12.55767-12.50565c.95856,2.51573,9.01225,24.80216-4.39978,46.00682C169.95464,175.83149,150.56246,179.80044,147.29028,180.41393Z"/><path class="cls-1" d="M147.29028,180.41393a46.87088,46.87088,0,0,1-2.19641-21.20966A36.68784,36.68784,0,0,1,148.25374,148.91a44.774,44.774,0,0,1,5.90178-9.02367,64.78265,64.78265,0,0,1,7.58775-7.66249c2.75435-2.35,5.79923-4.25484,8.59447-6.44518a99.94859,99.94859,0,0,0,15.3468-14.78434l.54588-.65188.29529.794a52.60853,52.60853,0,0,1,2.69673,11.06021,56.35891,56.35891,0,0,1,.45922,11.36194A49.81761,49.81761,0,0,1,168.06775,171.82,55.05173,55.05173,0,0,1,147.29028,180.41393Zm0,0a54.82715,54.82715,0,0,0,20.49073-9.005,49.769,49.769,0,0,0,20.985-37.90441,55.41877,55.41877,0,0,0-.498-11.17275,53.8499,53.8499,0,0,0-2.667-10.84306l.841.14212a100.88754,100.88754,0,0,1-15.55513,14.86251c-2.84394,2.20736-5.89135,4.09858-8.5913,6.38609a68.40949,68.40949,0,0,0-7.56468,7.49027,44.09436,44.09436,0,0,0-5.92213,8.81274,36.76481,36.76481,0,0,0-3.247,10.095A46.63708,46.63708,0,0,0,147.29028,180.41393Z"/><path class="cls-5" d="M146.282,181.41813c-2.412-10.87912.27848-17.60529,1.8332-20.58448,2.438-4.67177,6.85009-8.40886,15.67422-15.88331,3.516-2.97812,6.546-5.34355,8.70786-6.98317,1.32579,3.86358,4.55178,14.98633-.91653,24.46385-3.10461,5.38072-8.2026,8.829-13.841,12.64283A73.74723,73.74723,0,0,1,146.282,181.41813Z"/><path class="cls-1" d="M146.282,181.41814a34.6947,34.6947,0,0,1-.74481-13.61841,24.42858,24.42858,0,0,1,2.03847-6.58313,23.78444,23.78444,0,0,1,3.91824-5.69156,114.94574,114.94574,0,0,1,10.08727-9.29379c1.71554-1.49926,3.5075-2.918,5.28393-4.35395l5.33281-4.30468.54-.4359.22785.66978a36.91409,36.91409,0,0,1,2.07633,14.26049,23.23211,23.23211,0,0,1-5.07647,13.41137c-3.09067,3.7732-7.13631,6.4859-11.09,9.12842A72.83378,72.83378,0,0,1,146.282,181.41814Zm0,0a77.66252,77.66252,0,0,0,12.31269-7.22538c3.89917-2.71461,7.84523-5.491,10.76024-9.20257a22.2668,22.2668,0,0,0,3.39656-6.11377,24.67331,24.67331,0,0,0,1.37608-6.868A36.5438,36.5438,0,0,0,172.0289,138.128l.76762.23384-5.33493,4.2502c-1.7776,1.41795-3.56936,2.81718-5.29646,4.3069a134.195,134.195,0,0,0-10.11607,9.11511,23.09535,23.09535,0,0,0-3.917,5.45512,24.40492,24.40492,0,0,0-2.12517,6.39421A35.61866,35.61866,0,0,0,146.282,181.41814Z"/><text class="cls-6" transform="translate(63.69668 218.58331) scale(1.02452 1)">MADH<tspan class="cls-7" x="58.28758" y="0">AV</tspan><tspan class="cls-8" x="80.92109" y="0">A</tspan></text><text class="cls-9" transform="translate(63.69668 236.50909)">INN</text></svg>